<svg xmlns="http://www.w3.org/2000/svg" width="512" height="512" style="shape-rendering:geometricPrecision;text-rendering:geometricPrecision;image-rendering:optimizeQuality;fill-rule:evenodd;clip-rule:evenodd"><path style="opacity:1" fill="#fefefe" d="M237.5 65.5c18.724-.734 36.39 3.1 53 11.5a236.472 236.472 0 0 1 35.5 37.5c3.86 9.892 9.36 18.726 16.5 26.5a70.316 70.316 0 0 0 20 10c2.667.667 5.333.667 8 0 4.265-2.698 8.765-3.531 13.5-2.5.667 1.333.667 2.667 0 4a161.145 161.145 0 0 1-16 18c-3.303 4.275-5.803 8.941-7.5 14-.11 1.874.556 3.374 2 4.5a2650.851 2650.851 0 0 1 19.5 6.5c1.874 3.98 1.874 7.98 0 12a89.039 89.039 0 0 1-7.5 13.5c-12.094 8.07-25.094 14.403-39 19a1431.366 1431.366 0 0 1-55 5c-2.41.758-3.41 2.425-3 5a38.174 38.174 0 0 0 2.5 9.5c9.333 10.252 20.833 16.752 34.5 19.5a109.339 109.339 0 0 0 26 1 399.204 399.204 0 0 0 37-12 49.226 49.226 0 0 1 14 0c7.135 4.319 7.969 9.819 2.5 16.5a270.992 270.992 0 0 1-29.5 36.5 637.957 637.957 0 0 0-33.5 26.5c-6.345 9.359-9.845 19.692-10.5 31a595.662 595.662 0 0 0 6.5 41 69.162 69.162 0 0 0 9 17 936.563 936.563 0 0 0 27 31c2.705 6.094.872 10.261-5.5 12.5-34.68.795-69.347 1.961-104 3.5-21.294 2.749-24.127-2.917-8.5-17 6.556-8.442 11.556-17.776 15-28 .377-14.271-3.623-27.271-12-39a889.775 889.775 0 0 0-32-39 115.139 115.139 0 0 0-18.5-18c-2.58 9.583-6.413 18.583-11.5 27-11.327 12.671-24.827 22.171-40.5 28.5-10.593 3.583-20.927 2.916-31-2A180.773 180.773 0 0 1 97 381.5c-10.474-16.333-11.141-33-2-50a54.165 54.165 0 0 1 9.5-7.5c2.847-.944 5.347-.444 7.5 1.5a59.226 59.226 0 0 1-1.5 12.5c.651 8.656 4.651 15.323 12 20 8.288 1.46 15.122-1.04 20.5-7.5 5.569-6.908 6.902-14.574 4-23a518.033 518.033 0 0 1-28-45c-9.087-16.929-14.754-34.929-17-54a528.986 528.986 0 0 1 0-46c2.161-17.983 8.494-34.316 19-49 22.701-30.672 52.534-51.172 89.5-61.5a622.463 622.463 0 0 0 27-6.5z"/></svg>