<?xml version="1.0" encoding="UTF-8"?>
<svg xmlns="http://www.w3.org/2000/svg" xmlns:xlink="http://www.w3.org/1999/xlink" width="28px" height="28px" viewBox="0 0 28 28" version="1.1">
<g id="surface1">
<path style=" stroke:none;fill-rule:nonzero;fill:rgb(0%,0%,0%);fill-opacity:1;" d="M 27.554688 16.121094 C 27.304688 16.121094 27.105469 16.320312 27.105469 16.566406 L 27.105469 17.90625 L 0.894531 17.90625 L 0.894531 16.566406 C 0.894531 16.320312 0.695312 16.121094 0.445312 16.121094 C 0.199219 16.121094 0 16.320312 0 16.566406 L 0 27.476562 C 0 27.722656 0.199219 27.921875 0.445312 27.921875 L 27.554688 27.921875 C 27.800781 27.921875 28 27.722656 28 27.476562 L 28 16.566406 C 28 16.320312 27.800781 16.121094 27.554688 16.121094 Z M 27.105469 19.695312 L 4.019531 19.695312 C 3.773438 19.695312 3.574219 19.894531 3.574219 20.140625 C 3.574219 20.386719 3.773438 20.585938 4.019531 20.585938 L 27.105469 20.585938 L 27.105469 27.03125 L 0.894531 27.03125 L 0.894531 20.585938 L 2.234375 20.585938 C 2.480469 20.585938 2.679688 20.386719 2.679688 20.140625 C 2.679688 19.894531 2.480469 19.695312 2.234375 19.695312 L 0.894531 19.695312 L 0.894531 18.800781 L 27.105469 18.800781 Z M 27.105469 19.695312 "/>
<path style=" stroke:none;fill-rule:nonzero;fill:rgb(0%,0%,0%);fill-opacity:1;" d="M 11.277344 16.914062 C 11.359375 16.980469 11.460938 17.011719 11.558594 17.011719 C 11.6875 17.011719 11.816406 16.957031 11.90625 16.847656 L 16.859375 10.78125 C 17.015625 10.589844 16.988281 10.308594 16.796875 10.152344 C 16.605469 9.996094 16.324219 10.023438 16.167969 10.214844 L 11.210938 16.285156 C 11.058594 16.476562 11.085938 16.757812 11.277344 16.914062 Z M 11.277344 16.914062 "/>
<path style=" stroke:none;fill-rule:nonzero;fill:rgb(0%,0%,0%);fill-opacity:1;" d="M 13.476562 16.285156 C 13.320312 16.476562 13.347656 16.757812 13.539062 16.914062 C 13.625 16.980469 13.722656 17.011719 13.824219 17.011719 C 13.953125 17.011719 14.082031 16.957031 14.167969 16.847656 C 14.167969 16.847656 19.054688 10.867188 19.121094 10.78125 C 19.148438 10.746094 19.179688 10.714844 19.210938 10.683594 C 19.707031 10.1875 20.519531 10.1875 21.015625 10.683594 L 22.246094 11.914062 C 22.746094 12.414062 22.746094 13.222656 22.246094 13.722656 C 22.21875 13.75 22.183594 13.78125 22.152344 13.808594 L 19.195312 16.21875 C 19.003906 16.375 18.976562 16.65625 19.132812 16.847656 C 19.222656 16.957031 19.347656 17.011719 19.480469 17.011719 C 19.578125 17.011719 19.679688 16.980469 19.761719 16.914062 L 22.714844 14.5 C 22.773438 14.453125 22.828125 14.40625 22.878906 14.351562 C 23.613281 13.617188 23.710938 12.484375 23.167969 11.644531 C 24.378906 10.566406 25.921875 9.980469 27.554688 9.980469 C 27.800781 9.980469 28 9.78125 28 9.53125 C 28 9.285156 27.800781 9.085938 27.554688 9.085938 C 25.746094 9.085938 24.035156 9.722656 22.675781 10.886719 L 26.445312 7.117188 C 26.617188 6.945312 26.617188 6.660156 26.445312 6.488281 C 26.269531 6.3125 25.988281 6.3125 25.8125 6.488281 L 22.046875 10.253906 C 23.210938 8.894531 23.84375 7.1875 23.84375 5.378906 C 23.84375 5.132812 23.644531 4.929688 23.398438 4.929688 C 23.152344 4.929688 22.953125 5.132812 22.953125 5.378906 C 22.953125 7.011719 22.363281 8.550781 21.289062 9.761719 C 20.449219 9.21875 19.3125 9.316406 18.578125 10.050781 C 18.527344 10.101562 18.476562 10.160156 18.429688 10.214844 C 18.410156 10.238281 18.394531 10.261719 18.375 10.285156 Z M 13.476562 16.285156 "/>
<path style=" stroke:none;fill-rule:nonzero;fill:rgb(0%,0%,0%);fill-opacity:1;" d="M 2.234375 17.011719 C 2.480469 17.011719 2.679688 16.8125 2.679688 16.566406 L 2.679688 5.738281 L 9.023438 5.738281 L 9.023438 16.566406 C 9.023438 16.8125 9.222656 17.011719 9.46875 17.011719 C 9.714844 17.011719 9.914062 16.8125 9.914062 16.566406 L 9.914062 5.433594 L 11.597656 3.078125 L 12.855469 4.84375 L 11.664062 4.84375 C 11.417969 4.84375 11.21875 5.046875 11.21875 5.292969 C 11.21875 5.539062 11.417969 5.738281 11.664062 5.738281 L 13.277344 5.738281 L 13.277344 11.085938 C 13.277344 11.335938 13.476562 11.535156 13.722656 11.535156 C 13.972656 11.535156 14.171875 11.335938 14.171875 11.085938 L 14.171875 5.292969 C 14.171875 5.199219 14.140625 5.109375 14.089844 5.03125 L 12.042969 2.167969 L 12.042969 0.523438 C 12.042969 0.277344 11.84375 0.078125 11.597656 0.078125 L 4.359375 0.078125 C 4.113281 0.078125 3.914062 0.277344 3.914062 0.523438 L 3.914062 2.167969 L 1.867188 5.03125 C 1.816406 5.109375 1.785156 5.199219 1.785156 5.292969 L 1.785156 16.566406 C 1.785156 16.8125 1.984375 17.011719 2.234375 17.011719 Z M 4.808594 0.96875 L 11.148438 0.96875 L 11.148438 1.863281 L 4.808594 1.863281 Z M 4.589844 2.757812 L 10.730469 2.757812 L 9.238281 4.84375 L 3.101562 4.84375 Z M 4.589844 2.757812 "/>
<path style=" stroke:none;fill-rule:nonzero;fill:rgb(0%,0%,0%);fill-opacity:1;" d="M 25.765625 17.011719 C 26.011719 17.011719 26.210938 16.8125 26.210938 16.566406 L 26.210938 15.824219 C 26.210938 14.894531 25.625 14.054688 24.75 13.730469 C 24.519531 13.644531 24.261719 13.761719 24.175781 13.992188 C 24.089844 14.222656 24.210938 14.480469 24.441406 14.566406 C 24.964844 14.761719 25.320312 15.265625 25.320312 15.824219 L 25.320312 16.566406 C 25.320312 16.8125 25.519531 17.011719 25.765625 17.011719 Z M 25.765625 17.011719 "/>
</g>
</svg>
