<?xml version="1.0" encoding="UTF-8"?>
<svg xmlns="http://www.w3.org/2000/svg" xmlns:xlink="http://www.w3.org/1999/xlink" width="28px" height="28px" viewBox="0 0 28 28" version="1.1">
<g id="surface1">
<path style=" stroke:none;fill-rule:nonzero;fill:rgb(0%,0%,0%);fill-opacity:1;" d="M 10.734375 22.398438 L 8.867188 22.398438 C 8.609375 22.398438 8.398438 22.609375 8.398438 22.867188 C 8.398438 23.125 8.609375 23.332031 8.867188 23.332031 L 10.734375 23.332031 C 10.992188 23.332031 11.199219 23.125 11.199219 22.867188 C 11.199219 22.609375 10.992188 22.398438 10.734375 22.398438 Z M 10.734375 22.398438 "/>
<path style=" stroke:none;fill-rule:nonzero;fill:rgb(0%,0%,0%);fill-opacity:1;" d="M 6.066406 17.734375 L 5.132812 17.734375 C 4.875 17.734375 4.667969 17.941406 4.667969 18.199219 C 4.667969 18.457031 4.875 18.667969 5.132812 18.667969 L 5.601562 18.667969 L 5.601562 27.066406 L 4.667969 27.066406 L 4.667969 20.066406 C 4.667969 19.808594 4.457031 19.601562 4.199219 19.601562 C 3.941406 19.601562 3.734375 19.808594 3.734375 20.066406 L 3.734375 27.066406 L 3.265625 27.066406 C 1.980469 27.066406 0.933594 26.019531 0.933594 24.734375 L 0.933594 21 C 0.933594 19.714844 1.980469 18.667969 3.265625 18.667969 C 3.523438 18.667969 3.734375 18.457031 3.734375 18.199219 L 3.734375 14.464844 C 3.734375 14.210938 3.523438 14 3.265625 14 C 3.007812 14 2.800781 14.210938 2.800781 14.464844 L 2.800781 17.765625 C 1.21875 17.992188 0 19.355469 0 21 L 0 24.734375 C 0 26.535156 1.464844 28 3.265625 28 L 6.066406 28 C 6.324219 28 6.535156 27.789062 6.535156 27.535156 L 6.535156 18.199219 C 6.535156 17.941406 6.324219 17.734375 6.066406 17.734375 Z M 6.066406 17.734375 "/>
<path style=" stroke:none;fill-rule:nonzero;fill:rgb(0%,0%,0%);fill-opacity:1;" d="M 19.601562 22.867188 C 19.601562 22.609375 19.390625 22.398438 19.132812 22.398438 L 17.265625 22.398438 C 17.007812 22.398438 16.800781 22.609375 16.800781 22.867188 C 16.800781 23.125 17.007812 23.332031 17.265625 23.332031 L 19.132812 23.332031 C 19.390625 23.332031 19.601562 23.125 19.601562 22.867188 Z M 19.601562 22.867188 "/>
<path style=" stroke:none;fill-rule:nonzero;fill:rgb(0%,0%,0%);fill-opacity:1;" d="M 10.089844 25.730469 L 8.476562 24.796875 C 8.25 24.667969 7.964844 24.742188 7.835938 24.964844 C 7.707031 25.191406 7.785156 25.476562 8.007812 25.605469 L 9.625 26.539062 C 9.699219 26.578125 9.777344 26.601562 9.859375 26.601562 C 10.019531 26.601562 10.175781 26.515625 10.261719 26.367188 C 10.390625 26.144531 10.316406 25.859375 10.089844 25.730469 Z M 10.089844 25.730469 "/>
<path style=" stroke:none;fill-rule:nonzero;fill:rgb(0%,0%,0%);fill-opacity:1;" d="M 8.242188 21 C 8.320312 21 8.402344 20.980469 8.476562 20.9375 L 10.089844 20.003906 C 10.316406 19.875 10.390625 19.589844 10.261719 19.367188 C 10.132812 19.144531 9.847656 19.066406 9.625 19.195312 L 8.007812 20.128906 C 7.785156 20.257812 7.707031 20.542969 7.835938 20.765625 C 7.921875 20.917969 8.082031 21 8.242188 21 Z M 8.242188 21 "/>
<path style=" stroke:none;fill-rule:nonzero;fill:rgb(0%,0%,0%);fill-opacity:1;" d="M 24.265625 13.066406 L 25.199219 13.066406 C 25.652344 13.066406 26.132812 12.738281 26.132812 12.132812 C 26.132812 5.441406 20.691406 0 14 0 C 7.308594 0 1.867188 5.441406 1.867188 12.132812 C 1.867188 12.585938 2.195312 13.066406 2.800781 13.066406 L 3.734375 13.066406 C 4.1875 13.066406 4.667969 12.738281 4.667969 12.132812 C 4.667969 6.988281 8.855469 2.800781 14 2.800781 C 19.144531 2.800781 23.332031 6.988281 23.332031 12.132812 C 23.332031 12.585938 23.660156 13.066406 24.265625 13.066406 Z M 14 1.867188 C 8.339844 1.867188 3.734375 6.472656 3.734375 12.132812 L 2.800781 12.132812 C 2.800781 5.957031 7.824219 0.933594 14 0.933594 C 20.175781 0.933594 25.199219 5.957031 25.1875 12.132812 L 24.265625 12.132812 C 24.265625 6.472656 19.660156 1.867188 14 1.867188 Z M 14 1.867188 "/>
<path style=" stroke:none;fill-rule:nonzero;fill:rgb(0%,0%,0%);fill-opacity:1;" d="M 19.523438 24.796875 L 17.910156 25.730469 C 17.683594 25.859375 17.609375 26.144531 17.738281 26.367188 C 17.824219 26.515625 17.980469 26.601562 18.140625 26.601562 C 18.222656 26.601562 18.300781 26.578125 18.375 26.539062 L 19.992188 25.605469 C 20.214844 25.476562 20.292969 25.191406 20.164062 24.964844 C 20.035156 24.742188 19.75 24.667969 19.523438 24.796875 Z M 19.523438 24.796875 "/>
<path style=" stroke:none;fill-rule:nonzero;fill:rgb(0%,0%,0%);fill-opacity:1;" d="M 25.199219 17.765625 L 25.199219 14.464844 C 25.199219 14.210938 24.992188 14 24.734375 14 C 24.476562 14 24.265625 14.210938 24.265625 14.464844 L 24.265625 18.199219 C 24.265625 18.457031 24.476562 18.667969 24.734375 18.667969 C 26.019531 18.667969 27.066406 19.714844 27.066406 21 L 27.066406 24.734375 C 27.066406 26.019531 26.019531 27.066406 24.734375 27.066406 L 24.265625 27.066406 L 24.265625 20.066406 C 24.265625 19.808594 24.058594 19.601562 23.800781 19.601562 C 23.542969 19.601562 23.332031 19.808594 23.332031 20.066406 L 23.332031 27.066406 L 22.398438 27.066406 L 22.398438 18.667969 L 22.867188 18.667969 C 23.125 18.667969 23.332031 18.457031 23.332031 18.199219 C 23.332031 17.941406 23.125 17.734375 22.867188 17.734375 L 21.933594 17.734375 C 21.675781 17.734375 21.464844 17.941406 21.464844 18.199219 L 21.464844 27.535156 C 21.464844 27.789062 21.675781 28 21.933594 28 L 24.734375 28 C 26.535156 28 28 26.535156 28 24.734375 L 28 21 C 28 19.355469 26.78125 17.992188 25.199219 17.765625 Z M 25.199219 17.765625 "/>
<path style=" stroke:none;fill-rule:nonzero;fill:rgb(0%,0%,0%);fill-opacity:1;" d="M 19.992188 20.128906 L 18.375 19.195312 C 18.152344 19.066406 17.867188 19.144531 17.738281 19.367188 C 17.609375 19.589844 17.683594 19.875 17.910156 20.003906 L 19.523438 20.9375 C 19.597656 20.980469 19.679688 21 19.757812 21 C 19.917969 21 20.074219 20.917969 20.164062 20.765625 C 20.292969 20.542969 20.214844 20.257812 19.992188 20.128906 Z M 19.992188 20.128906 "/>
</g>
</svg>
