<?xml version="1.0" encoding="UTF-8"?>
<svg xmlns="http://www.w3.org/2000/svg" xmlns:xlink="http://www.w3.org/1999/xlink" width="28px" height="px" viewBox="0 0 28 28" version="1.1">
<g id="surface1">
<path style=" stroke:none;fill-rule:nonzero;fill:rgb(0%,0%,0%);fill-opacity:1;" d="M 26.558594 10.890625 L 23.9375 10.890625 C 23.519531 10.890625 23.171875 10.65625 23.011719 10.269531 C 22.847656 9.878906 22.929688 9.46875 23.226562 9.171875 L 25.078125 7.320312 C 25.351562 7.046875 25.5 6.6875 25.5 6.300781 C 25.5 5.914062 25.351562 5.554688 25.078125 5.28125 L 22.71875 2.921875 C 22.175781 2.375 21.226562 2.375 20.679688 2.921875 L 18.828125 4.773438 C 18.53125 5.070312 18.121094 5.152344 17.730469 4.988281 C 17.34375 4.828125 17.109375 4.480469 17.109375 4.0625 L 17.109375 1.441406 C 17.109375 0.648438 16.464844 0 15.667969 0 L 12.332031 0 C 11.535156 0 10.890625 0.648438 10.890625 1.441406 L 10.890625 4.0625 C 10.890625 4.480469 10.65625 4.828125 10.269531 4.988281 C 9.878906 5.152344 9.46875 5.070312 9.171875 4.773438 L 7.320312 2.921875 C 6.773438 2.375 5.824219 2.375 5.28125 2.921875 L 2.921875 5.28125 C 2.648438 5.554688 2.5 5.914062 2.5 6.300781 C 2.5 6.6875 2.648438 7.046875 2.921875 7.320312 L 4.773438 9.171875 C 5.070312 9.46875 5.152344 9.878906 4.988281 10.269531 C 4.828125 10.65625 4.480469 10.890625 4.0625 10.890625 L 1.441406 10.890625 C 0.648438 10.890625 0 11.535156 0 12.332031 L 0 15.667969 C 0 16.464844 0.648438 17.109375 1.441406 17.109375 L 4.0625 17.109375 C 4.480469 17.109375 4.828125 17.34375 4.988281 17.730469 C 5.152344 18.121094 5.070312 18.53125 4.773438 18.828125 L 2.921875 20.679688 C 2.648438 20.953125 2.5 21.3125 2.5 21.699219 C 2.5 22.085938 2.648438 22.445312 2.921875 22.71875 L 5.28125 25.078125 C 5.824219 25.625 6.773438 25.625 7.320312 25.078125 L 9.171875 23.226562 C 9.46875 22.929688 9.878906 22.847656 10.269531 23.011719 C 10.65625 23.171875 10.890625 23.519531 10.890625 23.9375 L 10.890625 26.558594 C 10.890625 27.351562 11.535156 28 12.332031 28 L 15.667969 28 C 16.464844 28 17.109375 27.351562 17.109375 26.558594 L 17.109375 23.9375 C 17.109375 23.519531 17.34375 23.171875 17.730469 23.011719 C 18.121094 22.847656 18.53125 22.929688 18.828125 23.226562 L 20.679688 25.078125 C 21.222656 25.625 22.175781 25.625 22.71875 25.078125 L 25.078125 22.71875 C 25.351562 22.445312 25.5 22.085938 25.5 21.699219 C 25.5 21.3125 25.351562 20.953125 25.078125 20.679688 L 23.226562 18.828125 C 22.929688 18.53125 22.847656 18.121094 23.007812 17.730469 C 23.171875 17.34375 23.519531 17.109375 23.9375 17.109375 L 26.558594 17.109375 C 27.351562 17.109375 28 16.464844 28 15.667969 L 28 12.332031 C 28 11.535156 27.351562 10.890625 26.558594 10.890625 Z M 26.964844 15.667969 C 26.964844 15.894531 26.78125 16.074219 26.558594 16.074219 L 23.9375 16.074219 C 23.097656 16.074219 22.375 16.558594 22.050781 17.335938 C 21.730469 18.113281 21.898438 18.964844 22.496094 19.5625 L 24.347656 21.414062 C 24.503906 21.570312 24.503906 21.828125 24.347656 21.984375 L 21.984375 24.347656 C 21.828125 24.503906 21.570312 24.503906 21.414062 24.347656 L 19.5625 22.496094 C 18.964844 21.898438 18.113281 21.730469 17.335938 22.050781 C 16.558594 22.375 16.074219 23.097656 16.074219 23.9375 L 16.074219 26.558594 C 16.074219 26.78125 15.894531 26.964844 15.667969 26.964844 L 12.332031 26.964844 C 12.105469 26.964844 11.925781 26.78125 11.925781 26.558594 L 11.925781 23.9375 C 11.925781 23.097656 11.441406 22.375 10.664062 22.050781 C 10.402344 21.941406 10.136719 21.890625 9.871094 21.890625 C 9.34375 21.890625 8.835938 22.097656 8.4375 22.492188 L 6.585938 24.347656 C 6.429688 24.503906 6.171875 24.503906 6.015625 24.347656 L 3.652344 21.984375 C 3.496094 21.828125 3.496094 21.570312 3.652344 21.414062 L 5.503906 19.5625 C 6.101562 18.964844 6.269531 18.113281 5.949219 17.335938 C 5.625 16.558594 4.902344 16.074219 4.0625 16.074219 L 1.441406 16.074219 C 1.21875 16.074219 1.035156 15.894531 1.035156 15.667969 L 1.035156 12.332031 C 1.035156 12.105469 1.21875 11.925781 1.441406 11.925781 L 4.0625 11.925781 C 4.902344 11.925781 5.625 11.441406 5.949219 10.664062 C 6.269531 9.886719 6.101562 9.035156 5.503906 8.4375 L 3.652344 6.585938 C 3.496094 6.429688 3.496094 6.171875 3.652344 6.015625 L 6.015625 3.652344 C 6.171875 3.496094 6.429688 3.496094 6.585938 3.652344 L 8.4375 5.503906 C 9.03125 6.101562 9.886719 6.269531 10.664062 5.949219 C 11.441406 5.625 11.925781 4.902344 11.925781 4.0625 L 11.925781 1.441406 C 11.925781 1.21875 12.105469 1.035156 12.332031 1.035156 L 15.667969 1.035156 C 15.894531 1.035156 16.074219 1.21875 16.074219 1.441406 L 16.074219 4.0625 C 16.074219 4.902344 16.558594 5.625 17.335938 5.949219 C 18.113281 6.269531 18.964844 6.101562 19.5625 5.503906 L 21.414062 3.652344 C 21.570312 3.496094 21.828125 3.496094 21.984375 3.652344 L 24.347656 6.015625 C 24.503906 6.171875 24.503906 6.429688 24.347656 6.585938 L 22.496094 8.4375 C 21.898438 9.035156 21.730469 9.886719 22.050781 10.664062 C 22.375 11.441406 23.097656 11.925781 23.9375 11.925781 L 26.558594 11.925781 C 26.78125 11.925781 26.964844 12.105469 26.964844 12.332031 Z M 26.964844 15.667969 "/>
<path style=" stroke:none;fill-rule:nonzero;fill:rgb(0%,0%,0%);fill-opacity:1;" d="M 14 9.332031 C 11.425781 9.332031 9.332031 11.425781 9.332031 14 C 9.332031 16.574219 11.425781 18.667969 14 18.667969 C 16.574219 18.667969 18.667969 16.574219 18.667969 14 C 18.667969 11.425781 16.574219 9.332031 14 9.332031 Z M 14 17.628906 C 12 17.628906 10.371094 16 10.371094 14 C 10.371094 12 12 10.371094 14 10.371094 C 16 10.371094 17.628906 12 17.628906 14 C 17.628906 16 16 17.628906 14 17.628906 Z M 14 17.628906 "/>
</g>
</svg>
