<?xml version="1.0" encoding="UTF-8"?>
<svg xmlns="http://www.w3.org/2000/svg" xmlns:xlink="http://www.w3.org/1999/xlink" width="28px" height="28px" viewBox="0 0 28 27" version="1.1">
<g id="surface1">
<path style=" stroke:none;fill-rule:nonzero;fill:rgb(0%,0%,0%);fill-opacity:1;" d="M 22.351562 13.421875 L 25.992188 7.695312 L 21.886719 13.121094 L 20.394531 15.269531 C 19.15625 14.066406 14.933594 9.972656 14.871094 9.917969 C 15.679688 9.132812 16.179688 8.054688 16.195312 6.867188 C 16.789062 6.730469 17.226562 6.21875 17.226562 5.605469 C 17.226562 4.992188 16.789062 4.480469 16.195312 4.34375 C 16.152344 1.941406 14.117188 0 11.613281 0 C 9.113281 0 7.074219 1.941406 7.03125 4.34375 C 6.4375 4.480469 6.003906 4.992188 6.003906 5.605469 C 6.003906 6.21875 6.4375 6.730469 7.03125 6.867188 C 7.046875 8.054688 7.550781 9.132812 8.355469 9.917969 C 8.105469 10.132812 2.523438 15.597656 2.523438 15.597656 C 2.191406 15.917969 2.007812 16.347656 2.007812 16.800781 C 2.007812 17.257812 2.191406 17.683594 2.523438 18.003906 C 2.859375 18.328125 3.300781 18.503906 3.773438 18.503906 C 4.246094 18.503906 4.6875 18.328125 5.023438 18.003906 L 6.703125 16.386719 L 6.703125 20.019531 L 8.121094 20.019531 L 8.121094 27 L 15.105469 27 L 15.105469 20.019531 L 16.527344 20.019531 L 16.527344 16.355469 L 18.238281 18.003906 C 18.289062 18.054688 18.34375 18.101562 18.398438 18.144531 L 17.722656 19.117188 L 18.1875 19.417969 L 18.890625 18.40625 C 19.078125 18.46875 19.28125 18.503906 19.488281 18.503906 C 19.957031 18.503906 20.402344 18.328125 20.734375 18.003906 C 21.070312 17.683594 21.253906 17.257812 21.253906 16.800781 C 21.253906 16.375 21.089844 15.972656 20.796875 15.660156 Z M 16.199219 4.914062 C 16.472656 5.03125 16.664062 5.296875 16.664062 5.605469 C 16.664062 5.917969 16.472656 6.179688 16.199219 6.296875 Z M 7.03125 6.296875 C 6.753906 6.179688 6.5625 5.917969 6.5625 5.605469 C 6.5625 5.296875 6.753906 5.03125 7.03125 4.914062 Z M 14.085938 1.359375 C 15.023438 2.066406 15.628906 3.164062 15.636719 4.398438 C 14.996094 4.132812 14.496094 3.652344 14.21875 3.035156 C 13.980469 2.5 13.933594 1.917969 14.085938 1.359375 Z M 9.558594 1.085938 C 10.160156 0.738281 10.863281 0.539062 11.613281 0.539062 C 12.335938 0.539062 13.011719 0.722656 13.597656 1.046875 C 13.355469 1.769531 13.390625 2.542969 13.703125 3.25 C 14.003906 3.921875 14.53125 4.464844 15.199219 4.796875 L 14.667969 5.132812 C 14.375 4.804688 13.941406 4.59375 13.457031 4.59375 C 12.609375 4.59375 11.910156 5.242188 11.875 6.054688 L 11.351562 6.054688 C 11.316406 5.242188 10.621094 4.59375 9.769531 4.59375 C 9.3125 4.59375 8.898438 4.78125 8.609375 5.082031 L 8.0625 4.734375 C 8.675781 4.398438 9.15625 3.882812 9.441406 3.25 C 9.75 2.554688 9.789062 1.796875 9.558594 1.085938 Z M 14.480469 6.117188 C 14.480469 6.664062 14.023438 7.105469 13.457031 7.105469 C 12.894531 7.105469 12.433594 6.664062 12.433594 6.117188 C 12.433594 5.574219 12.894531 5.132812 13.457031 5.132812 C 14.023438 5.132812 14.480469 5.574219 14.480469 6.117188 Z M 10.792969 6.117188 C 10.792969 6.664062 10.335938 7.105469 9.769531 7.105469 C 9.207031 7.105469 8.746094 6.664062 8.746094 6.117188 C 8.746094 5.574219 9.207031 5.132812 9.769531 5.132812 C 10.335938 5.132812 10.792969 5.574219 10.792969 6.117188 Z M 9.074219 1.414062 C 9.207031 1.953125 9.160156 2.515625 8.925781 3.035156 C 8.664062 3.625 8.191406 4.09375 7.589844 4.363281 C 7.609375 3.171875 8.183594 2.113281 9.074219 1.414062 Z M 7.589844 6.8125 L 7.589844 5.082031 L 8.308594 5.535156 C 8.230469 5.714844 8.1875 5.914062 8.1875 6.117188 C 8.1875 6.960938 8.898438 7.644531 9.769531 7.644531 C 10.472656 7.644531 11.066406 7.203125 11.273438 6.59375 L 11.953125 6.59375 C 12.160156 7.203125 12.757812 7.644531 13.457031 7.644531 C 14.332031 7.644531 15.042969 6.960938 15.042969 6.117188 C 15.042969 5.9375 15.007812 5.761719 14.949219 5.601562 L 15.636719 5.164062 L 15.636719 6.8125 C 15.636719 8.953125 13.832031 10.691406 11.613281 10.691406 C 9.394531 10.691406 7.589844 8.953125 7.589844 6.8125 Z M 11.613281 17.699219 L 10.640625 16.574219 L 11.613281 13.535156 L 12.585938 16.574219 Z M 11.613281 12.226562 L 10.421875 11.078125 C 10.804688 11.179688 11.203125 11.230469 11.613281 11.230469 C 12.027344 11.230469 12.425781 11.179688 12.804688 11.078125 Z M 10.976562 12.378906 L 9.828125 12.867188 L 8.5625 10.472656 C 8.632812 10.40625 8.703125 10.34375 8.777344 10.28125 C 8.816406 10.308594 10.976562 12.378906 10.976562 12.378906 Z M 14.449219 10.28125 C 14.519531 10.335938 14.585938 10.398438 14.65625 10.460938 L 13.382812 12.867188 L 12.246094 12.382812 C 12.246094 12.382812 14.414062 10.308594 14.449219 10.28125 Z M 4.625 17.625 C 4.398438 17.84375 4.09375 17.964844 3.773438 17.964844 C 3.449219 17.964844 3.148438 17.84375 2.917969 17.625 C 2.691406 17.402344 2.566406 17.113281 2.566406 16.800781 C 2.566406 16.492188 2.691406 16.199219 2.917969 15.980469 L 3.554688 15.363281 L 5.296875 16.976562 Z M 6.703125 13.464844 L 6.703125 15.621094 L 5.691406 16.597656 L 3.953125 14.984375 L 6.894531 12.144531 C 6.769531 12.566406 6.703125 13.011719 6.703125 13.464844 Z M 7.261719 19.480469 L 7.261719 13.464844 C 7.261719 12.519531 7.582031 11.628906 8.164062 10.90625 L 9.566406 13.566406 L 11.246094 12.851562 L 10.015625 16.695312 L 11.335938 18.222656 L 11.335938 19.480469 Z M 8.714844 26.460938 C 8.847656 25.875 9.375 25.472656 10.007812 25.472656 C 10.640625 25.472656 11.167969 25.875 11.300781 26.460938 Z M 11.335938 25.457031 C 10.992188 25.132812 10.523438 24.933594 10.007812 24.933594 C 9.492188 24.933594 9.023438 25.132812 8.679688 25.457031 L 8.679688 20.019531 L 11.335938 20.019531 Z M 11.925781 26.460938 C 12.0625 25.875 12.589844 25.472656 13.222656 25.472656 C 13.851562 25.472656 14.382812 25.875 14.515625 26.460938 Z M 14.546875 25.457031 C 14.207031 25.132812 13.738281 24.933594 13.222656 24.933594 C 12.703125 24.933594 12.234375 25.132812 11.894531 25.460938 L 11.894531 20.019531 L 14.546875 20.019531 Z M 15.96875 19.480469 L 11.894531 19.480469 L 11.894531 18.21875 L 13.210938 16.695312 L 11.984375 12.863281 L 13.644531 13.566406 L 15.054688 10.894531 C 15.644531 11.625 15.96875 12.519531 15.96875 13.464844 Z M 16.320312 12.105469 L 19.308594 14.980469 L 17.566406 16.59375 L 16.527344 15.59375 L 16.527344 13.464844 C 16.527344 12.996094 16.457031 12.539062 16.320312 12.105469 Z M 20.339844 17.625 C 20.113281 17.84375 19.808594 17.964844 19.488281 17.964844 C 19.164062 17.964844 18.859375 17.84375 18.632812 17.625 L 17.960938 16.976562 L 19.703125 15.363281 L 20.339844 15.976562 C 20.566406 16.199219 20.691406 16.492188 20.691406 16.800781 C 20.691406 17.113281 20.566406 17.402344 20.339844 17.625 Z M 20.339844 17.625 "/>
<path style=" stroke:none;fill-rule:nonzero;fill:rgb(0%,0%,0%);fill-opacity:1;" d="M 10.164062 6.117188 C 10.164062 6.328125 9.988281 6.5 9.769531 6.5 C 9.550781 6.5 9.375 6.328125 9.375 6.117188 C 9.375 5.90625 9.550781 5.738281 9.769531 5.738281 C 9.988281 5.738281 10.164062 5.90625 10.164062 6.117188 Z M 10.164062 6.117188 "/>
<path style=" stroke:none;fill-rule:nonzero;fill:rgb(0%,0%,0%);fill-opacity:1;" d="M 13.855469 6.117188 C 13.855469 6.328125 13.675781 6.5 13.457031 6.5 C 13.238281 6.5 13.0625 6.328125 13.0625 6.117188 C 13.0625 5.90625 13.238281 5.738281 13.457031 5.738281 C 13.675781 5.738281 13.855469 5.90625 13.855469 6.117188 Z M 13.855469 6.117188 "/>
<path style=" stroke:none;fill-rule:nonzero;fill:rgb(0%,0%,0%);fill-opacity:1;" d="M 8.007812 14.078125 L 10.175781 14.078125 L 10.175781 14.617188 L 8.007812 14.617188 Z M 8.007812 14.078125 "/>
</g>
</svg>
