<?xml version="1.0" encoding="UTF-8"?>
<svg xmlns="http://www.w3.org/2000/svg" xmlns:xlink="http://www.w3.org/1999/xlink" width="28px" height="28px" viewBox="0 0 28 28" version="1.1">
<g id="surface1">
<path style=" stroke:none;fill-rule:nonzero;fill:rgb(0%,0%,0%);fill-opacity:1;" d="M 25.609375 2.660156 L 24.613281 2.660156 L 24.613281 2.148438 C 24.613281 1.363281 23.976562 0.726562 23.191406 0.726562 C 22.410156 0.726562 21.769531 1.363281 21.769531 2.148438 L 21.769531 2.660156 L 6.230469 2.660156 L 6.230469 2.148438 C 6.230469 1.363281 5.589844 0.726562 4.808594 0.726562 C 4.023438 0.726562 3.386719 1.363281 3.386719 2.148438 L 3.386719 2.660156 L 2.390625 2.660156 C 1.070312 2.660156 0 3.734375 0 5.050781 L 0 24.886719 C 0 26.203125 1.070312 27.273438 2.390625 27.273438 L 25.609375 27.273438 C 26.929688 27.273438 28 26.203125 28 24.886719 L 28 5.050781 C 28 3.734375 26.929688 2.660156 25.609375 2.660156 Z M 22.679688 2.148438 C 22.679688 1.863281 22.910156 1.632812 23.191406 1.632812 C 23.476562 1.632812 23.707031 1.863281 23.707031 2.148438 L 23.707031 3.109375 C 23.707031 3.113281 23.707031 3.113281 23.707031 3.113281 C 23.707031 3.117188 23.707031 3.117188 23.707031 3.117188 L 23.707031 4.082031 C 23.707031 4.367188 23.476562 4.597656 23.191406 4.597656 C 22.910156 4.597656 22.679688 4.367188 22.679688 4.082031 Z M 4.808594 1.632812 C 5.089844 1.632812 5.320312 1.863281 5.320312 2.148438 L 5.320312 4.082031 C 5.320312 4.367188 5.089844 4.597656 4.808594 4.597656 C 4.523438 4.597656 4.292969 4.367188 4.292969 4.082031 L 4.292969 3.117188 C 4.292969 3.117188 4.292969 3.117188 4.292969 3.113281 C 4.292969 3.113281 4.292969 3.113281 4.292969 3.109375 L 4.292969 2.148438 C 4.292969 1.863281 4.523438 1.632812 4.808594 1.632812 Z M 25.609375 26.367188 L 2.390625 26.367188 C 1.570312 26.367188 0.90625 25.703125 0.90625 24.886719 L 0.90625 7.4375 L 4.324219 7.4375 C 4.574219 7.4375 4.777344 7.234375 4.777344 6.984375 C 4.777344 6.734375 4.574219 6.53125 4.324219 6.53125 L 0.90625 6.53125 L 0.90625 5.050781 C 0.90625 4.234375 1.570312 3.566406 2.390625 3.566406 L 3.386719 3.566406 L 3.386719 4.082031 C 3.386719 4.867188 4.023438 5.503906 4.808594 5.503906 C 5.589844 5.503906 6.230469 4.867188 6.230469 4.082031 L 6.230469 3.566406 L 21.769531 3.566406 L 21.769531 4.082031 C 21.769531 4.867188 22.410156 5.503906 23.191406 5.503906 C 23.976562 5.503906 24.613281 4.867188 24.613281 4.082031 L 24.613281 3.566406 L 25.609375 3.566406 C 26.429688 3.566406 27.09375 4.234375 27.09375 5.050781 L 27.09375 6.53125 L 24.644531 6.53125 C 24.394531 6.53125 24.191406 6.734375 24.191406 6.984375 C 24.191406 7.234375 24.394531 7.4375 24.644531 7.4375 L 27.09375 7.4375 L 27.09375 24.886719 C 27.09375 25.703125 26.429688 26.367188 25.609375 26.367188 Z M 25.609375 26.367188 "/>
<path style=" stroke:none;fill-rule:nonzero;fill:rgb(0%,0%,0%);fill-opacity:1;" d="M 22.707031 6.53125 L 21.742188 6.53125 C 21.492188 6.53125 21.289062 6.734375 21.289062 6.984375 C 21.289062 7.234375 21.492188 7.4375 21.742188 7.4375 L 22.707031 7.4375 C 22.957031 7.4375 23.160156 7.234375 23.160156 6.984375 C 23.160156 6.734375 22.957031 6.53125 22.707031 6.53125 Z M 22.707031 6.53125 "/>
<path style=" stroke:none;fill-rule:nonzero;fill:rgb(0%,0%,0%);fill-opacity:1;" d="M 20.257812 6.984375 C 20.257812 6.734375 20.054688 6.53125 19.804688 6.53125 L 6.257812 6.53125 C 6.007812 6.53125 5.804688 6.734375 5.804688 6.984375 C 5.804688 7.234375 6.007812 7.4375 6.257812 7.4375 L 19.804688 7.4375 C 20.054688 7.4375 20.257812 7.234375 20.257812 6.984375 Z M 20.257812 6.984375 "/>
<path style=" stroke:none;fill-rule:nonzero;fill:rgb(0%,0%,0%);fill-opacity:1;" d="M 19.972656 14.257812 L 16.570312 14.257812 C 16.421875 14.257812 16.289062 14.160156 16.242188 14.019531 L 15.191406 10.78125 C 15.019531 10.257812 14.550781 9.917969 14 9.917969 C 13.449219 9.917969 12.980469 10.257812 12.808594 10.78125 L 11.757812 14.019531 C 11.710938 14.160156 11.578125 14.257812 11.429688 14.257812 L 8.027344 14.257812 C 7.472656 14.257812 7.007812 14.597656 6.835938 15.121094 C 6.664062 15.648438 6.84375 16.199219 7.289062 16.523438 L 10.042969 18.523438 C 10.164062 18.609375 10.214844 18.765625 10.167969 18.910156 L 9.117188 22.144531 C 8.945312 22.671875 9.125 23.21875 9.574219 23.542969 C 10.019531 23.871094 10.597656 23.871094 11.042969 23.542969 L 13.796875 21.542969 C 13.917969 21.457031 14.082031 21.457031 14.203125 21.542969 L 16.957031 23.542969 C 17.179688 23.707031 17.433594 23.789062 17.691406 23.789062 C 17.949219 23.789062 18.203125 23.707031 18.425781 23.542969 C 18.875 23.21875 19.054688 22.671875 18.882812 22.144531 L 17.832031 18.910156 C 17.785156 18.765625 17.835938 18.609375 17.957031 18.523438 L 20.707031 16.523438 C 21.15625 16.199219 21.335938 15.648438 21.164062 15.121094 C 20.992188 14.597656 20.527344 14.257812 19.972656 14.257812 Z M 20.175781 15.789062 L 17.421875 17.789062 C 16.984375 18.109375 16.800781 18.671875 16.96875 19.1875 L 18.019531 22.425781 C 18.089844 22.644531 17.941406 22.777344 17.894531 22.8125 C 17.847656 22.84375 17.675781 22.949219 17.488281 22.8125 L 14.734375 20.8125 C 14.515625 20.652344 14.257812 20.570312 14 20.570312 C 13.742188 20.570312 13.484375 20.652344 13.265625 20.8125 L 10.511719 22.8125 C 10.324219 22.949219 10.152344 22.84375 10.105469 22.8125 C 10.058594 22.777344 9.910156 22.644531 9.980469 22.425781 L 11.03125 19.1875 C 11.199219 18.671875 11.015625 18.109375 10.578125 17.789062 L 7.824219 15.789062 C 7.636719 15.652344 7.679688 15.460938 7.699219 15.402344 C 7.71875 15.347656 7.792969 15.164062 8.027344 15.164062 L 11.429688 15.164062 C 11.972656 15.164062 12.453125 14.816406 12.621094 14.300781 L 13.671875 11.0625 C 13.742188 10.84375 13.941406 10.824219 14 10.824219 C 14.058594 10.824219 14.257812 10.84375 14.328125 11.0625 L 15.378906 14.300781 C 15.546875 14.816406 16.027344 15.164062 16.570312 15.164062 L 19.972656 15.164062 C 20.207031 15.164062 20.285156 15.347656 20.300781 15.402344 C 20.320312 15.460938 20.363281 15.652344 20.175781 15.789062 Z M 20.175781 15.789062 "/>
<path style=" stroke:none;fill-rule:nonzero;fill:rgb(0%,0%,0%);fill-opacity:1;" d="M 16.199219 16.285156 C 15.492188 16.839844 15.046875 17.667969 14.980469 18.5625 C 14.953125 18.941406 14.992188 19.320312 15.097656 19.683594 C 15.152344 19.882812 15.335938 20.011719 15.53125 20.011719 C 15.574219 20.011719 15.617188 20.007812 15.660156 19.996094 C 15.898438 19.925781 16.039062 19.675781 15.96875 19.433594 C 15.890625 19.171875 15.863281 18.902344 15.882812 18.628906 C 15.929688 17.992188 16.25 17.398438 16.757812 17.003906 C 16.957031 16.847656 16.992188 16.5625 16.835938 16.367188 C 16.683594 16.167969 16.398438 16.132812 16.199219 16.285156 Z M 16.199219 16.285156 "/>
<path style=" stroke:none;fill-rule:nonzero;fill:rgb(0%,0%,0%);fill-opacity:1;" d="M 14.425781 14.6875 C 14.339844 14.453125 14.082031 14.332031 13.847656 14.417969 C 13.609375 14.503906 13.488281 14.761719 13.574219 14.996094 C 13.707031 15.363281 13.898438 15.695312 14.152344 15.992188 C 14.242188 16.09375 14.367188 16.148438 14.496094 16.148438 C 14.601562 16.148438 14.707031 16.113281 14.792969 16.039062 C 14.980469 15.875 15.003906 15.589844 14.839844 15.398438 C 14.660156 15.191406 14.519531 14.953125 14.425781 14.6875 Z M 14.425781 14.6875 "/>
</g>
</svg>
